<svg xmlns="http://www.w3.org/2000/svg" viewBox="0 0 96 96"><g id="icon"><path d="M63.91,86.14H10.68A4.67,4.67,0,0,1,6,81.47V10.53a4.66,4.66,0,0,1,4.66-4.66H63.91a4.67,4.67,0,0,1,4.67,4.66V21.07a.75.75,0,1,1-1.5,0V10.53a3.17,3.17,0,0,0-3.17-3.16H10.68a3.17,3.17,0,0,0-3.16,3.16V81.47a3.17,3.17,0,0,0,3.16,3.17H63.91a3.17,3.17,0,0,0,3.17-3.17V60.16a.75.75,0,0,1,1.5,0V81.47A4.68,4.68,0,0,1,63.91,86.14Z"/><path d="M67.83,50.81a.74.74,0,0,1-.75-.75V37a.75.75,0,0,1,1.5,0V50.06A.75.75,0,0,1,67.83,50.81Z"/><path d="M37.3,42.12a23.24,23.24,0,0,1-7.76-1.18c-3.22-1.18-3.9-2.87-3.9-4.08a11.73,11.73,0,0,1,5.79-10.08.75.75,0,0,1,.75,1.3,10.21,10.21,0,0,0-5,8.78c0,2.14,4.37,3.76,10.16,3.76S47.45,39,47.45,36.86a10.19,10.19,0,0,0-5-8.77.75.75,0,0,1-.27-1,.74.74,0,0,1,1-.27A11.68,11.68,0,0,1,49,36.86C49,40.49,43.1,42.12,37.3,42.12Z"/><path d="M20.59,53.53H18.26a.75.75,0,0,1,0-1.5h2.33a.75.75,0,1,1,0,1.5Z"/><path d="M20.59,61.82H18.26a.75.75,0,1,1,0-1.5h2.33a.75.75,0,0,1,0,1.5Z"/><path d="M20.59,70.11H18.26a.75.75,0,0,1,0-1.5h2.33a.75.75,0,1,1,0,1.5Z"/><path d="M56.33,53.53H26.9a.75.75,0,0,1,0-1.5H56.33a.75.75,0,0,1,0,1.5Z"/><path d="M46.21,61.82H26.9a.75.75,0,0,1,0-1.5H46.21a.75.75,0,0,1,0,1.5Z"/><path d="M53.58,70.11H26.9a.75.75,0,1,1,0-1.5H53.58a.75.75,0,0,1,0,1.5Z"/><path d="M67.82,37.76a8.72,8.72,0,1,1,8.73-8.71A8.72,8.72,0,0,1,67.82,37.76Zm0-15.94a7.22,7.22,0,1,0,7.23,7.23A7.22,7.22,0,0,0,67.82,21.82Z"/><path d="M66.74,31.84a.73.73,0,0,1-.51-.21l-2-1.86a.75.75,0,1,1,1-1.09L66.73,30l3.62-3.58a.75.75,0,1,1,1.05,1.07l-4.13,4.09A.75.75,0,0,1,66.74,31.84Z"/><path d="M58.86,90.13H10.15a7.9,7.9,0,0,1-7.9-7.9V15.4A4.35,4.35,0,0,1,6.6,11.05h.17a.75.75,0,0,1,0,1.5H6.6A2.86,2.86,0,0,0,3.75,15.4V82.23a6.41,6.41,0,0,0,6.4,6.4H58.86a2.86,2.86,0,0,0,2.85-2.85v-.39a.75.75,0,0,1,1.5,0v.39A4.35,4.35,0,0,1,58.86,90.13Z"/><path d="M37.3,32.07c-4.27,0-7.7-5.25-7.7-9.6a7.7,7.7,0,0,1,15.4,0C45,26.82,41.56,32.07,37.3,32.07Zm0-15.8a6.21,6.21,0,0,0-6.2,6.2c0,3.57,2.92,8.1,6.2,8.1s6.2-4.53,6.2-8.1A6.21,6.21,0,0,0,37.3,16.27Z"/><path d="M53.58,70.11a.71.71,0,0,1-.53-.22.73.73,0,0,1-.18-.78l2.71-7.76a.84.84,0,0,1,.18-.28L86.37,30.46a4.32,4.32,0,1,1,6.11,6.11L61.87,67.18a.84.84,0,0,1-.28.18l-7.77,2.71A.67.67,0,0,1,53.58,70.11ZM56.94,62,54.8,68.14,60.93,66,91.42,35.51a2.82,2.82,0,1,0-4-4Zm4.4,4.64h0Z"/><path d="M61.34,67.4a.74.74,0,0,1-.53-.22l-5.05-5.05a.74.74,0,0,1,0-1.06.75.75,0,0,1,1.06,0l5,5.05a.75.75,0,0,1,0,1.06A.74.74,0,0,1,61.34,67.4Z"/><path d="M88.73,40a.71.71,0,0,1-.53-.22l-5-5a.74.74,0,0,1,0-1.06.75.75,0,0,1,1.06,0l5.05,5a.75.75,0,0,1,0,1.06A.74.74,0,0,1,88.73,40Z"/></g></svg>