<?xml version="1.0" encoding="utf-8"?>
<!-- Generator: Adobe Illustrator 16.0.3, SVG Export Plug-In . SVG Version: 6.00 Build 0)  -->
<!DOCTYPE svg PUBLIC "-//W3C//DTD SVG 1.1//EN" "http://www.w3.org/Graphics/SVG/1.1/DTD/svg11.dtd">
<svg version="1.1" id="Capa_1" xmlns="http://www.w3.org/2000/svg" xmlns:xlink="http://www.w3.org/1999/xlink" x="0px" y="0px"
	 width="512px" height="512px" viewBox="0 0 512 512" enable-background="new 0 0 512 512" xml:space="preserve">
<g id="Capa_x0020_1">
	<g id="Add">
		<path id="_4" fill="#0C4DA1" d="M256,17c132,0,238,107,238,239S388,495,256,495S17,388,17,256S124,17,256,17z"/>
		<path id="_3" fill="#0B428A" d="M426,88c43,43,69,103,69,168c0,132-107,239-239,239c-65,0-125-26-168-70L426,88z"/>
		<path id="_2" fill="#0A2952" d="M426,218c26,0,41,10,46,30c1,2,1,6,2,12c-2,28-18,42-48,42H307l-1,102c0,15-3,26-10,33
			c-8,7-17,11-29,11s-22-3-31-10c-9-6-14-15-17-27c-2-5-3-11-3-18l2-91H103c-13,0-23-2-31-7c-7-5-12-12-15-21c-1-4-1-8-1-14
			c0-13,4-24,12-31s20-11,35-11h116l1-102c-1-14,3-25,10-32c7-8,16-11,28-11s22,3,31,10c9,6,14,15,17,26c2,6,3,12,3,18l-1,91H426z"
			/>
		<path id="_1" fill="#FFD000" d="M418,209c25,0,41,10,46,30c0,2,1,6,1,12c-1,29-17,43-47,43H299l-1,101c0,15-4,26-11,33
			s-16,11-28,11s-23-3-31-10c-9-6-15-15-18-27c-1-5-2-11-2-17l1-91H94c-12,0-22-3-30-8s-13-12-15-21c-1-4-2-8-1-14c0-13,4-23,12-31
			c8-7,19-11,34-11h116l1-101c0-15,3-26,10-33s17-11,29-11s22,3,31,10c8,6,14,15,17,27c2,5,2,11,2,17v91H418z"/>
	</g>
</g>
</svg>
